<svg xmlns="http://www.w3.org/2000/svg" width="48" height="48" viewBox="0 0 48 48">
  <g id="Group_11175" data-name="Group 11175" transform="translate(-380 -403)">
    <rect id="Rectangle_1793" data-name="Rectangle 1793" width="48" height="48" transform="translate(380 403)" fill="none"/>
    <path id="bells-light" d="M21.576,32.671A9.958,9.958,0,0,0,8.826,38.6l-1.1,3A14.45,14.45,0,0,1,2.083,48.71l-.608.4a2.4,2.4,0,0,0,.488,4.265l17.308,6.3.083-.293a12.415,12.415,0,0,0,.405-2.08L2.789,51.12l.616-.405a16.907,16.907,0,0,0,6.585-8.29l1.1-3a7.553,7.553,0,0,1,9.439-4.573,12.57,12.57,0,0,1,2.1-1.727c-.338-.165-.683-.315-1.044-.451ZM22.2,46.457a7.923,7.923,0,1,1,14.89-5.421L38.5,44.873a16.8,16.8,0,0,0,6.45,8.2l1.029.691h0L23.641,61.9l.345-1.186a16.8,16.8,0,0,0-.375-10.415L22.2,46.45Zm3.9-12.412a10.3,10.3,0,0,0-6.15,13.231l1.412,3.845a14.406,14.406,0,0,1,.323,8.928l-.345,1.186a2.388,2.388,0,0,0,.676,2.418,2.415,2.415,0,0,0,2.463.5l22.332-8.132a2.4,2.4,0,0,0,.511-4.25l-1.029-.691a14.467,14.467,0,0,1-5.527-7.028L39.35,40.21A10.357,10.357,0,0,0,26.1,34.045ZM33,62.519a1.2,1.2,0,0,0-.12,1.7A4.806,4.806,0,0,0,41.317,60.9a1.2,1.2,0,1,0-2.4.09,2.406,2.406,0,0,1-4.22,1.659,1.2,1.2,0,0,0-1.7-.12ZM13.864,60.2a2.406,2.406,0,0,1-4.22-1.659,1.2,1.2,0,0,0-2.4-.09,4.806,4.806,0,0,0,8.433,3.319,1.2,1.2,0,1,0-1.817-1.577Z" transform="translate(379.615 378.03)" fill="#002470"/>
  </g>
</svg>
